<?xml version="1.0" encoding="utf-8"?>
<!-- Generator: Adobe Illustrator 16.0.0, SVG Export Plug-In . SVG Version: 6.00 Build 0)  -->
<!DOCTYPE svg PUBLIC "-//W3C//DTD SVG 1.1//EN" "http://www.w3.org/Graphics/SVG/1.1/DTD/svg11.dtd">
<svg version="1.1" id="logo-01" xmlns="http://www.w3.org/2000/svg" xmlns:xlink="http://www.w3.org/1999/xlink" x="0px" y="0px"
	 width="172.75px" height="48px" viewBox="0 0 172.75 48" enable-background="new 0 0 172.75 48" xml:space="preserve">
<path display="none" d="M49.015,17.22v12.832c0.013,1.102-0.867,2.007-1.968,2.024H36.835c-1.606-0.01-3.08-0.894-3.844-2.307
	c-2.954-5.396-7.278-9.917-12.537-13.107c-1.602-0.971-2.579-2.708-2.577-4.58V2.023C17.864,0.922,18.744,0.018,19.845,0H32.3
	c1.103,0.018,1.984,0.925,1.968,2.028v13.164h12.778C48.149,15.209,49.031,16.117,49.015,17.22z"/>
<path display="none" d="M16.813,34.751v10.573C16.811,46.8,18.005,47.998,19.481,48c0.001,0,0.002,0,0.003,0h11.411
	c1.475,0,2.671-1.197,2.671-2.672v-6.485c0-4.38-4.608-10.44-6.849-12.979C21.2,19.609,15.68,16.156,4.83,16.156H0.667
	C4.3,23.027,13.555,26.809,19.542,27.034C12.8,27.118,3.781,23.617,0.013,16.684c0.235,9.738,6.958,15.531,16.8,16.23
	c5.885,0.418,11.612,0.249,13.616,3.218c1.013,1.5,0.915,2.849,0.915,4.688v4.5c-0.001,0.246-0.2,0.445-0.446,0.445H19.484
	c-0.246,0-0.445-0.199-0.445-0.445v-7.469C19.039,35,16.813,34.751,16.813,34.751z"/>
<image overflow="visible" width="1000" height="1000" xlink:href="Logo.png"  transform="matrix(0.0447 0 0 0.0447 8.5015 3.2559)">
</image>
<image display="none" overflow="visible" width="808" height="58" xlink:href="73A4CA4D.jpg"  transform="matrix(0.3014 0 0 0.3014 50.9941 8.1479)">
</image>
<image overflow="visible" width="554" height="58" xlink:href="73A4CA53.jpg"  transform="matrix(0.2162 0 0 0.2162 53.2451 19.3594)">
</image>
</svg>
